<svg xmlns="http://www.w3.org/2000/svg" viewBox="0 0 24 24" id="amazon"><path fill="#FFC107" d="M20.677 19.768c-9.79 4.688-15.858.761-19.743-1.623-.239-.161-.652.032-.292.445C1.941 20.169 6.18 24 11.719 24s8.841-3.054 9.249-3.59v.001c.413-.536.107-.841-.291-.643z"></path><path fill="#212121" d="M13.76 7.001c-2.581.096-8.984.831-8.984 6.295 0 5.867 7.331 6.108 9.727 2.314.345.546 1.876 2.009 2.401 2.508l3.011-3s-1.712-1.355-1.712-2.829v-7.88C18.203 3.054 16.905 0 12.251 0 7.587 0 5.112 2.946 5.112 5.588l3.895.365c.864-2.652 2.873-2.652 2.873-2.652 2.158-.006 1.882 1.597 1.882 3.702l-.002-.002zm0 4.65c0 4.286-4.463 3.644-4.463.921 0-2.528 2.676-3.038 4.463-3.096v2.175z"></path><path fill="#FFC107" d="M23.422 18.219c-.264-.347-1.606-.401-2.438-.305-.838.106-2.11.632-1.988.937.053.123.17.07.742.016.583-.059 2.199-.273 2.544.171.35.455-.514 2.598-.673 2.946-.158.349.053.445.345.203.276-.225.779-.814 1.124-1.661h-.001c.345-.855.541-2.034.345-2.307z"></path></svg>