<svg width="50" height="17" viewBox="0 0 50 17" fill="none" xmlns="http://www.w3.org/2000/svg">
<path d="M18.6048 0.869659L12.1895 16.1749H8.00382L4.84721 3.95889C4.65528 3.20751 4.4899 2.93187 3.90595 2.61539C2.95447 2.09882 1.38229 1.61491 0 1.31273L0.0939224 0.869659H6.83183C7.27214 0.869217 7.6981 1.02619 8.03283 1.31225C8.36756 1.5983 8.58901 1.99459 8.65719 2.42959L10.3253 11.2869L14.4457 0.869659H18.6048ZM35.0065 11.1787C35.0228 7.13796 29.4202 6.9154 29.459 5.11046C29.4712 4.56122 29.9939 3.97726 31.1373 3.82821C32.4773 3.70095 33.8268 3.93798 35.0433 4.51425L35.7375 1.26781C34.5532 0.822585 33.2989 0.592335 32.0337 0.587891C28.1195 0.587891 25.3652 2.67052 25.3407 5.64949C25.3162 7.85258 27.3069 9.0797 28.8076 9.81474C30.3512 10.5641 30.8698 11.0459 30.8617 11.7157C30.8515 12.7447 29.6325 13.1959 28.4932 13.2143C26.5024 13.245 25.3488 12.6773 24.4259 12.2486L23.7093 15.6012C24.6342 16.0259 26.3411 16.3975 28.1114 16.4138C32.2705 16.4138 34.9922 14.3598 35.0065 11.1787ZM45.34 16.1749H49.003L45.8076 0.869659H42.4264C42.0651 0.866311 41.7112 0.971582 41.4104 1.17182C41.1097 1.37206 40.8761 1.65803 40.7399 1.99264L34.8003 16.1749H38.9574L39.7843 13.8881H44.8643L45.34 16.1749ZM40.9236 10.7519L43.0062 5.00428L44.2068 10.7519H40.9236ZM24.2626 0.869659L20.9896 16.1749H17.0285L20.3056 0.869659H24.2626Z" fill="white"/>
</svg>
