<svg width="32" height="32" viewBox="0 0 32 32" fill="none" xmlns="http://www.w3.org/2000/svg">
<g clip-path="url(#clip0_254_2398)">
<path d="M32 16C32 7.1635 24.8365 0 16 0C7.1635 0 0 7.16337 0 16C0 23.986 5.851 30.6054 13.5 31.8056V20.625H9.4375V16H13.5V12.475C13.5 8.465 15.8888 6.25 19.5434 6.25C21.294 6.25 23.125 6.5625 23.125 6.5625V10.5H21.1075C19.1198 10.5 18.5 11.7334 18.5 12.9987V16H22.9375L22.2281 20.625H18.5V31.8056C26.149 30.6054 32 23.9861 32 16Z" fill="#1877F2"/>
<path d="M22.2281 20.625L22.9375 16H18.5V12.9987C18.5 11.7332 19.1199 10.5 21.1075 10.5H23.125V6.5625C23.125 6.5625 21.294 6.25 19.5434 6.25C15.8888 6.25 13.5 8.465 13.5 12.475V16H9.4375V20.625H13.5V31.8056C14.327 31.9352 15.1629 32.0002 16 32C16.8371 32.0002 17.673 31.9353 18.5 31.8056V20.625H22.2281Z" fill="white"/>
</g>
<defs>
<clipPath id="clip0_254_2398">
<rect width="32" height="32" fill="white"/>
</clipPath>
</defs>
</svg>
