<svg width="132" height="136" viewBox="0 0 132 136" fill="none" xmlns="http://www.w3.org/2000/svg">
<g filter="url(#filter0_d_677_1944)">
<path fill-rule="evenodd" clip-rule="evenodd" d="M15 20C15 22.7614 17.2386 25 20 25C22.7614 25 25 22.7614 25 20C25 17.2386 22.7614 15 20 15C17.2386 15 15 17.2386 15 20ZM33 41C28.5817 41 25 37.4183 25 33C25 28.5817 28.5817 25 33 25C37.4183 25 41 28.5817 41 33C41 37.4183 37.4183 41 33 41ZM71.8856 40.1539C72.4357 36.5938 77.5643 36.5938 78.1144 40.1539C78.5825 43.1829 82.6609 43.8288 84.0421 41.0928C85.6655 37.8769 90.543 39.4617 89.9661 43.0176C89.4753 46.0429 93.1545 47.9176 95.3135 45.7422C97.8512 43.1854 102 46.1999 100.353 49.4035C98.9511 52.1291 101.871 55.0489 104.597 53.6472C107.8 51.9997 110.815 56.1488 108.258 58.6865C106.082 60.8455 107.957 64.5247 110.982 64.0339C114.538 63.457 116.123 68.3345 112.907 69.9579C110.171 71.3391 110.817 75.4175 113.846 75.8856C117.406 76.4357 117.406 81.5643 113.846 82.1144C110.817 82.5825 110.171 86.6609 112.907 88.0421C116.123 89.6655 114.538 94.543 110.982 93.9661C107.957 93.4753 106.082 97.1545 108.258 99.3135C110.815 101.851 107.8 106 104.597 104.353C101.871 102.951 98.9511 105.871 100.353 108.597C102 111.8 97.8512 114.815 95.3135 112.258C93.1545 110.082 89.4753 111.957 89.9661 114.982C90.543 118.538 85.6655 120.123 84.0421 116.907C82.6609 114.171 78.5825 114.817 78.1144 117.846C77.5643 121.406 72.4357 121.406 71.8856 117.846C71.4175 114.817 67.3391 114.171 65.9579 116.907C64.3345 120.123 59.457 118.538 60.0339 114.982C60.5247 111.957 56.8455 110.082 54.6865 112.258C52.1488 114.815 47.9997 111.8 49.6472 108.597C51.0489 105.871 48.1291 102.951 45.4035 104.353C42.1999 106 39.1854 101.851 41.7422 99.3135C43.9176 97.1545 42.0429 93.4753 39.0176 93.9661C35.4617 94.543 33.8769 89.6655 37.0928 88.0421C39.8288 86.6609 39.1829 82.5825 36.1539 82.1144C32.5938 81.5643 32.5938 76.4357 36.1539 75.8856C39.1829 75.4175 39.8288 71.3391 37.0928 69.9579C33.8769 68.3345 35.4617 63.457 39.0176 64.0339C42.0429 64.5247 43.9176 60.8455 41.7422 58.6865C39.1854 56.1488 42.1999 51.9997 45.4035 53.6472C48.1291 55.0489 51.0489 52.1291 49.6472 49.4035C47.9997 46.1999 52.1488 43.1854 54.6865 45.7422C56.8455 47.9176 60.5247 46.0429 60.0339 43.0176C59.457 39.4617 64.3345 37.8769 65.9579 41.0928C67.3391 43.8288 71.4175 43.1829 71.8856 40.1539Z" fill="#F58220"/>
</g>
<path d="M65.1686 62.84H58.6886V66.26C58.9686 65.9133 59.3686 65.6333 59.8886 65.42C60.4086 65.1933 60.9619 65.08 61.5486 65.08C62.6153 65.08 63.4886 65.3133 64.1686 65.78C64.8486 66.2467 65.3419 66.8467 65.6486 67.58C65.9553 68.3 66.1086 69.0733 66.1086 69.9C66.1086 71.4333 65.6686 72.6667 64.7886 73.6C63.9219 74.5333 62.6819 75 61.0686 75C59.5486 75 58.3353 74.62 57.4286 73.86C56.5219 73.1 56.0086 72.1067 55.8886 70.88H58.6086C58.7286 71.4133 58.9953 71.84 59.4086 72.16C59.8353 72.48 60.3753 72.64 61.0286 72.64C61.8153 72.64 62.4086 72.3933 62.8086 71.9C63.2086 71.4067 63.4086 70.7533 63.4086 69.94C63.4086 69.1133 63.2019 68.4867 62.7886 68.06C62.3886 67.62 61.7953 67.4 61.0086 67.4C60.4486 67.4 59.9819 67.54 59.6086 67.82C59.2353 68.1 58.9686 68.4733 58.8086 68.94H56.1286V60.38H65.1686V62.84ZM68.2397 67.52C68.2397 65.2133 68.653 63.4067 69.4797 62.1C70.3197 60.7933 71.7064 60.14 73.6397 60.14C75.573 60.14 76.953 60.7933 77.7797 62.1C78.6197 63.4067 79.0397 65.2133 79.0397 67.52C79.0397 69.84 78.6197 71.66 77.7797 72.98C76.953 74.3 75.573 74.96 73.6397 74.96C71.7064 74.96 70.3197 74.3 69.4797 72.98C68.653 71.66 68.2397 69.84 68.2397 67.52ZM76.2797 67.52C76.2797 66.5333 76.213 65.7067 76.0797 65.04C75.9597 64.36 75.7064 63.8067 75.3197 63.38C74.9464 62.9533 74.3864 62.74 73.6397 62.74C72.893 62.74 72.3264 62.9533 71.9397 63.38C71.5664 63.8067 71.313 64.36 71.1797 65.04C71.0597 65.7067 70.9997 66.5333 70.9997 67.52C70.9997 68.5333 71.0597 69.3867 71.1797 70.08C71.2997 70.76 71.553 71.3133 71.9397 71.74C72.3264 72.1533 72.893 72.36 73.6397 72.36C74.3864 72.36 74.953 72.1533 75.3397 71.74C75.7264 71.3133 75.9797 70.76 76.0997 70.08C76.2197 69.3867 76.2797 68.5333 76.2797 67.52ZM80.8494 64C80.8494 62.9867 81.1427 62.1933 81.7294 61.62C82.3294 61.0467 83.096 60.76 84.0294 60.76C84.9627 60.76 85.7227 61.0467 86.3094 61.62C86.9094 62.1933 87.2094 62.9867 87.2094 64C87.2094 65.0267 86.9094 65.8267 86.3094 66.4C85.7227 66.9733 84.9627 67.26 84.0294 67.26C83.096 67.26 82.3294 66.9733 81.7294 66.4C81.1427 65.8267 80.8494 65.0267 80.8494 64ZM93.6894 61L85.8294 75H83.1094L90.9494 61H93.6894ZM84.0094 62.44C83.276 62.44 82.9094 62.96 82.9094 64C82.9094 65.0533 83.276 65.58 84.0094 65.58C84.3694 65.58 84.6494 65.4533 84.8494 65.2C85.0494 64.9333 85.1494 64.5333 85.1494 64C85.1494 62.96 84.7694 62.44 84.0094 62.44ZM89.6294 71.98C89.6294 70.9533 89.9227 70.16 90.5094 69.6C91.1094 69.0267 91.876 68.74 92.8094 68.74C93.7427 68.74 94.496 69.0267 95.0694 69.6C95.656 70.16 95.9494 70.9533 95.9494 71.98C95.9494 73.0067 95.656 73.8067 95.0694 74.38C94.496 74.9533 93.7427 75.24 92.8094 75.24C91.8627 75.24 91.096 74.9533 90.5094 74.38C89.9227 73.8067 89.6294 73.0067 89.6294 71.98ZM92.7894 70.42C92.0294 70.42 91.6494 70.94 91.6494 71.98C91.6494 73.0333 92.0294 73.56 92.7894 73.56C93.536 73.56 93.9094 73.0333 93.9094 71.98C93.9094 70.94 93.536 70.42 92.7894 70.42ZM64.903 98.14C63.5963 98.14 62.3963 97.8333 61.303 97.22C60.2096 96.6067 59.343 95.76 58.703 94.68C58.063 93.5867 57.743 92.3533 57.743 90.98C57.743 89.62 58.063 88.4 58.703 87.32C59.343 86.2267 60.2096 85.3733 61.303 84.76C62.3963 84.1467 63.5963 83.84 64.903 83.84C66.223 83.84 67.423 84.1467 68.503 84.76C69.5963 85.3733 70.4563 86.2267 71.083 87.32C71.723 88.4 72.043 89.62 72.043 90.98C72.043 92.3533 71.723 93.5867 71.083 94.68C70.4563 95.76 69.5963 96.6067 68.503 97.22C67.4096 97.8333 66.2096 98.14 64.903 98.14ZM64.903 95.64C65.743 95.64 66.483 95.4533 67.123 95.08C67.763 94.6933 68.263 94.1467 68.623 93.44C68.983 92.7333 69.163 91.9133 69.163 90.98C69.163 90.0467 68.983 89.2333 68.623 88.54C68.263 87.8333 67.763 87.2933 67.123 86.92C66.483 86.5467 65.743 86.36 64.903 86.36C64.063 86.36 63.3163 86.5467 62.663 86.92C62.023 87.2933 61.523 87.8333 61.163 88.54C60.803 89.2333 60.623 90.0467 60.623 90.98C60.623 91.9133 60.803 92.7333 61.163 93.44C61.523 94.1467 62.023 94.6933 62.663 95.08C63.3163 95.4533 64.063 95.64 64.903 95.64ZM82.7461 84.04V86.3H76.9261V89.88H81.3861V92.1H76.9261V98H74.1261V84.04H82.7461ZM93.3516 84.04V86.3H87.5316V89.88H91.9916V92.1H87.5316V98H84.7316V84.04H93.3516Z" fill="white"/>
<defs>
<filter id="filter0_d_677_1944" x="0" y="0" width="131.516" height="135.517" filterUnits="userSpaceOnUse" color-interpolation-filters="sRGB">
<feFlood flood-opacity="0" result="BackgroundImageFix"/>
<feColorMatrix in="SourceAlpha" type="matrix" values="0 0 0 0 0 0 0 0 0 0 0 0 0 0 0 0 0 0 127 0" result="hardAlpha"/>
<feOffset/>
<feGaussianBlur stdDeviation="7.5"/>
<feComposite in2="hardAlpha" operator="out"/>
<feColorMatrix type="matrix" values="0 0 0 0 1 0 0 0 0 1 0 0 0 0 1 0 0 0 0.15 0"/>
<feBlend mode="normal" in2="BackgroundImageFix" result="effect1_dropShadow_677_1944"/>
<feBlend mode="normal" in="SourceGraphic" in2="effect1_dropShadow_677_1944" result="shape"/>
</filter>
</defs>
</svg>
