<svg width="24" height="27" viewBox="0 0 24 27" fill="none" xmlns="http://www.w3.org/2000/svg">
<g clip-path="url(#clip0)">
<path d="M24 0.5979H0.788269L2.83637 23.8097L12.3942 26.5405L21.9519 23.8097L24 0.5979Z" fill="#0277BD"/>
<path d="M12.3942 2.646V24.4227L20.0404 22.2395L21.7471 2.646H12.3942Z" fill="#039BE5"/>
<path d="M18.6081 6.05951H12.3942V8.79031H15.738L15.5359 11.5211H12.3942V14.2519H15.3967L15.1946 17.324L12.3942 18.2785V21.1485L17.7861 19.3721L18.2667 11.5211L18.6081 6.05951Z" fill="white"/>
<path d="M12.3942 6.05951V8.79031H6.31951L6.11401 6.05951H12.3942ZM9.25238 11.5211L9.39165 14.2519H12.3942V11.5211H9.25238ZM9.52751 15.6173H6.79671L7.00152 19.3721L12.3942 21.1485V18.2785L9.59373 17.324L9.52751 15.6173Z" fill="#EEEEEE"/>
</g>
<defs>
<clipPath id="clip0">
<rect width="23.2118" height="25.9426" fill="white" transform="translate(0.788269 0.5979)"/>
</clipPath>
</defs>
</svg>
