<svg width="18" height="27" viewBox="0 0 18 27" fill="none" xmlns="http://www.w3.org/2000/svg">
<g clip-path="url(#clip0)">
<path d="M4.43836 26.5405C6.8874 26.5405 8.87502 24.6035 8.87502 22.2168V17.893H4.43836C1.98933 17.893 0.00170898 19.8301 0.00170898 22.2168C0.00170898 24.6035 1.98933 26.5405 4.43836 26.5405Z" fill="#0ACF83"/>
<path d="M0.00170898 13.5691C0.00170898 11.1823 1.98933 9.2453 4.43836 9.2453H8.87502V17.8928H4.43836C1.98933 17.8928 0.00170898 15.9558 0.00170898 13.5691Z" fill="#A259FF"/>
<path d="M0.00378418 4.92166C0.00378418 2.53494 1.99141 0.5979 4.44044 0.5979H8.87709V9.24542H4.44044C1.99141 9.24542 0.00378418 7.30838 0.00378418 4.92166Z" fill="#F24E1E"/>
<path d="M8.87509 0.5979H13.3117C15.7608 0.5979 17.7484 2.53494 17.7484 4.92166C17.7484 7.30838 15.7608 9.24542 13.3117 9.24542H8.87509V0.5979Z" fill="#FF7262"/>
<path d="M17.7484 13.5691C17.7484 15.9558 15.7608 17.8928 13.3117 17.8928C10.8627 17.8928 8.87509 15.9558 8.87509 13.5691C8.87509 11.1823 10.8627 9.2453 13.3117 9.2453C15.7608 9.2453 17.7484 11.1823 17.7484 13.5691Z" fill="#1ABCFE"/>
</g>
<defs>
<clipPath id="clip0">
<rect width="17.7502" height="25.9426" fill="white" transform="translate(0 0.5979)"/>
</clipPath>
</defs>
</svg>
