<svg width="27" height="27" viewBox="0 0 27 27" fill="none" xmlns="http://www.w3.org/2000/svg">
<g clip-path="url(#clip0)">
<path d="M3.96223 23.9057L1.8848 0.5979H24.7365L22.6591 23.9057L13.2853 26.5405" fill="#E34F26"/>
<path d="M13.336 24.5137L20.8857 22.4363L22.6591 2.47266H13.336" fill="#EF652A"/>
<path d="M13.336 11.1371H9.53582L9.28247 8.19825H13.336V5.36078H6.14099L6.90103 14.0252H13.336V11.1371ZM13.2853 18.5854L10.0932 17.724L9.8905 15.4439H7.05303L7.40772 19.9535L13.2853 21.5749V18.5854Z" fill="#EBEBEB"/>
<path d="M13.2854 11.1371V14.0252H16.8322L16.4775 17.724L13.2854 18.5854V21.5749L19.163 19.9535L19.9737 11.1371H13.2854ZM13.2854 5.36078V8.19825H20.227L20.4804 5.36078H13.2854Z" fill="white"/>
</g>
<defs>
<clipPath id="clip0">
<rect width="25.9426" height="25.9426" fill="white" transform="translate(0.364685 0.5979)"/>
</clipPath>
</defs>
</svg>
